<svg width="28" height="28" viewBox="0 0 28 28" fill="none" xmlns="http://www.w3.org/2000/svg">
<g clip-path="url(#clip0_147_9)">
<path d="M0 28H28V0H0V28Z" fill="#212B3F"/>
<path d="M21 10.9066C19.2698 10.9421 17.7357 11.807 16.7687 13.1319C16.0907 14.0558 15.6888 15.2057 15.6888 16.4524C15.6888 17.1425 15.4814 17.7862 15.1301 18.3194C14.5437 19.2073 13.5508 19.7915 12.4234 19.7915C10.6203 19.7915 9.15796 18.2972 9.15796 16.4524C9.15796 14.6076 10.6203 13.1132 12.4234 13.1132C13.5508 13.1132 14.5437 13.6975 15.1301 14.5854C15.3598 13.8111 15.73 13.0988 16.2082 12.4803C15.2317 11.5065 13.8963 10.9048 12.4234 10.9048C11.1978 10.9048 10.0674 11.3208 9.15796 12.0222V7H7V16.4975C7.02468 19.5391 9.44291 22 12.4234 22C13.8963 22 15.2317 21.3983 16.2082 20.4245C16.4109 20.2231 16.5983 20.0049 16.7687 19.7747C17.4432 18.8472 17.8474 17.6991 17.8474 16.4524C17.8474 14.6461 19.248 13.1752 21 13.1163" fill="white"/>
</g>
<defs>
<clipPath id="clip0_147_9">
<rect width="28" height="28" rx="8" fill="white"/>
</clipPath>
</defs>
</svg>
